<?xml version="1.0" standalone="no"?>
<!DOCTYPE svg PUBLIC "-//W3C//DTD SVG 20010904//EN"
 "http://www.w3.org/TR/2001/REC-SVG-20010904/DTD/svg10.dtd">
<svg version="1.0" xmlns="http://www.w3.org/2000/svg"
 width="951.000000pt" height="1280.000000pt" viewBox="0 0 951.000000 1280.000000"
 preserveAspectRatio="xMidYMid meet">
<g transform="translate(0.000000,1280.000000) scale(0.100000,-0.100000)"
fill="#000000" stroke="none">
<path d="M5490 12775 c-190 -39 -307 -89 -445 -193 -148 -111 -253 -242 -350
-437 -135 -272 -192 -524 -202 -892 -8 -291 16 -554 75 -841 24 -112 17 -121
-53 -68 -67 52 -178 102 -275 126 -88 20 -234 27 -245 11 -3 -5 28 -37 69 -70
107 -88 165 -156 284 -336 58 -88 119 -178 136 -199 44 -57 135 -120 227 -158
l81 -33 57 -120 c67 -141 160 -304 243 -429 37 -53 56 -92 51 -97 -6 -6 -32 0
-66 16 -84 37 -308 111 -422 139 -152 38 -284 62 -585 106 -151 23 -327 52
-390 67 -314 69 -536 185 -756 396 -217 207 -356 450 -410 716 -23 118 -16
327 16 426 61 193 162 322 305 393 109 54 168 67 305 66 107 0 136 -4 205 -27
287 -95 477 -357 478 -657 0 -175 -57 -322 -174 -445 -109 -115 -222 -165
-373 -165 -259 0 -465 167 -506 412 -30 174 50 369 192 474 186 137 417 99
499 -81 30 -64 21 -155 -15 -155 -7 0 -23 12 -37 26 -45 49 -97 69 -179 69
-85 0 -133 -20 -186 -77 -46 -48 -66 -94 -72 -164 -4 -51 0 -71 20 -115 45
-97 118 -149 221 -157 125 -10 243 79 271 203 4 17 23 63 44 104 34 68 37 81
37 160 0 77 -3 92 -30 140 -56 101 -172 178 -284 188 -123 11 -246 -30 -342
-116 -119 -106 -182 -247 -182 -411 -1 -161 44 -274 153 -382 112 -109 248
-163 410 -161 297 4 534 240 581 577 28 207 -52 442 -208 606 -302 321 -848
304 -1087 -33 -161 -227 -204 -503 -127 -809 95 -378 363 -723 729 -941 217
-129 393 -178 972 -272 345 -56 629 -124 623 -150 -1 -5 -42 -15 -90 -22 -107
-15 -233 -53 -332 -100 -67 -32 -78 -34 -106 -24 -64 23 -100 8 -156 -67 -82
-108 -170 -115 -261 -21 -27 27 -48 46 -48 41 0 -4 14 -31 31 -60 31 -55 95
-105 150 -117 42 -9 43 -20 9 -70 -112 -163 -161 -376 -127 -560 37 -206 131
-379 292 -540 97 -97 122 -117 205 -158 138 -69 221 -87 420 -91 193 -5 270
-20 387 -77 175 -84 261 -221 233 -369 -30 -162 -174 -320 -291 -320 -28 0
-29 1 -28 48 1 31 -7 64 -22 97 -31 64 -64 71 -126 26 -50 -36 -67 -82 -51
-138 30 -111 168 -135 326 -57 96 47 170 122 219 222 37 73 38 80 38 181 0 95
-3 112 -27 162 -42 84 -136 169 -249 224 -51 25 -100 45 -110 45 -9 0 -22 6
-28 14 -10 11 1 23 58 61 98 65 173 151 229 264 44 87 47 100 47 170 0 63 -5
86 -28 134 -39 79 -82 107 -163 107 -140 0 -225 -67 -226 -179 0 -89 57 -159
153 -186 34 -9 63 -23 66 -32 19 -50 -108 -185 -238 -253 -105 -55 -190 -73
-309 -67 -318 15 -600 265 -701 622 -34 118 -32 271 4 381 91 275 380 492 736
550 160 27 375 6 486 -45 185 -86 247 -120 342 -183 307 -205 510 -526 570
-902 19 -125 14 -437 -11 -571 -47 -254 -141 -546 -267 -826 -45 -101 -297
-513 -361 -591 -21 -26 -38 -54 -38 -63 0 -9 -49 -98 -108 -198 -197 -330
-423 -741 -627 -1140 -44 -86 -85 -157 -91 -157 -5 0 -17 46 -27 103 -46 289
-155 509 -341 693 -222 218 -466 323 -726 311 -126 -5 -203 -29 -307 -93 -254
-158 -356 -492 -227 -745 14 -28 23 -53 20 -56 -6 -6 -21 10 -161 167 -322
361 -727 657 -1101 803 -122 48 -291 92 -444 116 -69 11 -161 29 -205 41 -100
28 -183 24 -278 -15 -74 -30 -187 -99 -187 -114 0 -16 76 -23 251 -24 151 -2
168 0 219 21 89 38 209 30 419 -29 259 -73 580 -249 836 -460 142 -117 402
-382 523 -532 137 -171 136 -176 -16 -84 -298 179 -658 257 -977 212 -66 -9
-172 -20 -235 -24 -130 -8 -164 -20 -228 -81 -54 -52 -88 -98 -107 -144 l-16
-39 33 6 c18 4 84 22 146 41 91 27 125 43 172 79 81 64 104 74 199 88 115 16
369 6 482 -20 192 -44 365 -119 536 -233 131 -88 308 -260 406 -398 74 -103
186 -317 266 -506 115 -273 188 -649 207 -1064 l7 -146 -61 -204 c-34 -113
-74 -252 -89 -309 -15 -57 -33 -106 -39 -108 -6 -2 -33 25 -60 59 -73 94 -324
342 -444 440 -405 329 -820 544 -1195 618 -153 31 -407 38 -537 16 -241 -41
-430 -139 -595 -309 -152 -156 -245 -329 -300 -559 -14 -56 -18 -115 -18 -258
0 -159 3 -196 22 -267 61 -226 172 -406 329 -532 283 -228 641 -272 942 -116
211 110 358 290 424 521 32 112 32 296 0 407 -47 165 -118 284 -231 389 -194
180 -448 217 -691 101 -146 -70 -293 -250 -343 -420 -41 -137 -27 -314 33
-433 44 -88 140 -181 226 -222 56 -26 79 -31 140 -31 62 0 83 5 137 31 94 47
188 149 252 276 l50 98 3 122 c3 117 2 123 -25 176 -64 123 -226 175 -351 111
-77 -39 -142 -145 -142 -231 0 -52 31 -131 68 -171 21 -24 69 -57 115 -81 l79
-39 -6 -37 c-8 -52 -54 -113 -106 -142 -109 -60 -254 -7 -351 129 -114 159
-109 413 12 602 80 125 179 204 314 251 65 22 97 28 170 28 109 -1 160 -11
242 -52 197 -97 343 -321 374 -575 29 -235 -77 -490 -269 -648 -238 -197 -557
-233 -837 -96 -236 116 -390 310 -467 587 -18 67 -22 105 -22 249 0 152 3 180
27 268 65 241 214 463 393 584 280 191 605 228 1012 117 499 -136 1117 -578
1506 -1079 34 -44 65 -85 69 -91 3 -5 -9 -77 -28 -160 -40 -182 -76 -368 -110
-575 -31 -191 -65 -452 -59 -458 2 -2 39 18 81 44 159 99 345 205 524 300 101
53 187 100 191 104 3 3 15 62 25 131 18 123 18 125 45 128 34 4 33 2 48 267
13 223 24 293 110 640 79 322 164 612 206 710 77 176 229 443 346 608 258 365
571 623 873 720 138 44 186 52 315 51 104 0 142 -5 223 -27 376 -103 670 -441
728 -836 64 -442 -206 -877 -617 -992 -110 -31 -268 -31 -378 0 -133 37 -229
93 -326 191 -69 68 -94 102 -128 170 -63 128 -77 192 -77 350 0 153 18 229 83
353 183 351 658 405 927 105 60 -67 120 -189 135 -277 30 -164 -51 -356 -172
-414 -73 -35 -168 -18 -230 41 -33 31 -35 53 -7 91 47 64 47 203 -1 264 -29
36 -116 77 -164 77 -112 -1 -216 -108 -216 -222 1 -89 76 -186 214 -277 223
-145 431 -124 558 58 58 83 80 151 86 266 7 152 -29 269 -123 392 -44 60 -149
145 -220 181 -123 61 -305 81 -438 46 -139 -36 -281 -138 -364 -262 -83 -126
-131 -317 -120 -483 8 -120 31 -207 84 -319 40 -82 59 -107 142 -191 82 -82
110 -103 191 -142 130 -64 225 -87 364 -87 123 0 207 16 306 57 482 200 710
770 515 1289 -124 329 -406 595 -724 683 -338 94 -704 5 -1058 -257 -96 -71
-358 -328 -413 -404 -74 -106 -61 -27 36 207 l29 69 62 22 c76 27 141 71 182
122 33 43 85 141 78 148 -2 2 -30 -2 -63 -11 -65 -17 -130 -20 -138 -6 -8 13
116 301 285 663 145 311 531 1069 580 1138 9 14 39 34 66 44 127 51 256 164
330 291 46 78 88 173 81 180 -3 3 -25 -4 -49 -14 -63 -28 -140 -44 -152 -32
-24 24 567 981 980 1588 313 461 683 969 974 1339 l122 154 248 185 c136 103
252 192 258 199 13 15 76 304 68 312 -3 3 -177 -110 -385 -251 l-380 -256
-149 -172 c-479 -554 -976 -1184 -1385 -1756 -57 -80 -107 -144 -112 -143 -4
1 -9 109 -10 239 -2 186 -7 258 -21 328 -26 126 -25 199 4 258 29 59 98 132
174 182 32 21 56 40 54 42 -6 5 -107 -32 -157 -57 -25 -12 -66 -38 -93 -56
-26 -19 -53 -34 -61 -34 -7 0 -21 21 -31 48 -26 69 -90 185 -159 287 -59 86
-225 266 -295 317 l-33 25 12 54 c25 113 -21 183 -179 269 -52 29 -112 66
-132 82 -146 117 -175 369 -68 597 26 56 27 62 9 46 -71 -64 -160 -265 -180
-405 -6 -40 -13 -76 -16 -79 -12 -13 -82 104 -182 304 -187 374 -301 769 -358
1235 -23 193 -24 551 -1 704 55 359 176 639 362 835 116 122 271 217 425 261
96 28 299 38 406 20 197 -31 380 -127 520 -272 86 -88 124 -143 174 -251 63
-136 75 -200 75 -382 0 -182 -12 -246 -75 -382 -84 -181 -198 -302 -369 -387
-180 -91 -377 -101 -558 -29 -35 14 -63 31 -63 38 0 7 17 15 40 18 81 11 130
68 130 150 0 88 -49 139 -140 145 -71 4 -113 -21 -142 -84 -15 -36 -18 -57
-13 -95 9 -61 -5 -59 -63 9 -248 295 -249 657 -3 903 119 119 239 169 407 169
275 0 485 -192 484 -444 -1 -129 -89 -236 -195 -236 l-35 0 0 68 c0 159 -123
274 -279 259 -98 -8 -181 -68 -219 -156 -20 -46 -20 -156 0 -202 22 -50 74
-106 122 -132 51 -27 166 -29 304 -4 221 40 343 146 374 324 21 126 -29 297
-117 400 -51 60 -158 127 -250 158 -73 25 -90 27 -195 23 -130 -5 -221 -31
-313 -89 -329 -209 -412 -637 -190 -982 231 -360 675 -453 1036 -217 481 314
546 1044 133 1479 -157 164 -331 256 -582 306 -151 30 -194 30 -344 0z m-1770
-7586 c203 -50 429 -216 561 -410 135 -200 208 -495 182 -744 -10 -97 -13
-106 -112 -320 -151 -323 -355 -811 -459 -1095 -11 -30 -25 -55 -32 -55 -7 0
-30 64 -55 150 -161 560 -384 1003 -777 1547 -23 32 -39 60 -37 63 3 2 24 -9
46 -25 57 -42 115 -60 192 -60 111 0 172 48 191 149 22 117 3 185 -67 238 -33
25 -46 28 -127 31 -85 3 -94 2 -126 -22 -65 -47 -80 -53 -96 -32 -20 28 -27
117 -14 180 16 80 81 202 137 260 153 157 349 205 593 145z"/>
<path d="M3479 5006 c-43 -30 -64 -75 -62 -135 3 -80 64 -136 148 -136 58 0
91 18 129 68 25 34 26 109 3 154 -38 72 -147 97 -218 49z"/>
<path d="M3893 4779 c-48 -14 -83 -62 -83 -115 0 -37 6 -51 34 -82 31 -34 39
-37 86 -37 47 0 55 3 86 37 28 31 34 45 34 82 0 65 -36 105 -110 121 -8 2 -29
-1 -47 -6z"/>
<path d="M3682 4411 c-213 -73 -231 -375 -30 -475 59 -29 147 -35 209 -12 127
45 197 195 154 327 -25 73 -94 142 -166 163 -67 20 -101 20 -167 -3z"/>
<path d="M3616 11811 c-44 -29 -66 -70 -66 -124 0 -83 45 -139 120 -152 22 -4
55 -2 74 5 45 15 93 70 102 116 9 51 -21 122 -65 151 -44 30 -123 31 -165 4z"/>
<path d="M5268 11784 c-35 -19 -48 -43 -48 -92 0 -80 95 -120 158 -67 36 30
45 69 27 112 -14 32 -59 63 -92 63 -10 -1 -30 -7 -45 -16z"/>
<path d="M4205 11266 c-147 -68 -102 -286 60 -286 86 0 149 64 149 152 0 103
-116 178 -209 134z"/>
<path d="M3847 11259 c-22 -13 -47 -61 -47 -93 0 -14 13 -40 29 -58 24 -27 36
-33 71 -33 35 0 47 6 71 33 40 44 40 93 0 133 -23 22 -39 29 -68 29 -21 0 -46
-5 -56 -11z"/>
<path d="M5919 11241 c-51 -51 -37 -130 28 -157 87 -37 168 45 128 130 -30 62
-107 75 -156 27z"/>
<path d="M8792 10914 c-138 -70 -87 -284 67 -284 114 0 184 112 135 216 -34
71 -132 104 -202 68z"/>
<path d="M4071 10806 c-87 -48 -50 -186 49 -186 51 0 100 49 100 99 0 75 -83
124 -149 87z"/>
<path d="M8366 10449 c-70 -83 12 -195 112 -153 44 18 68 72 52 120 -15 44
-45 64 -96 64 -35 0 -47 -5 -68 -31z"/>
<path d="M9329 10421 c-21 -22 -29 -39 -29 -66 0 -52 44 -95 97 -95 46 0 77
20 99 62 13 25 13 35 3 59 -30 73 -117 93 -170 40z"/>
<path d="M5610 10419 c-210 -95 -212 -377 -5 -475 122 -58 271 -5 338 121 17
31 22 58 22 115 0 57 -5 84 -22 115 -47 88 -138 145 -233 145 -34 0 -72 -8
-100 -21z"/>
<path d="M8875 10364 c-62 -16 -92 -30 -128 -63 -101 -91 -116 -245 -34 -353
91 -119 280 -133 385 -28 158 157 66 423 -153 444 -27 2 -59 2 -70 0z"/>
<path d="M3950 10242 c-19 -10 -46 -34 -58 -53 -20 -29 -23 -43 -20 -93 4 -54
8 -62 46 -97 37 -35 46 -39 95 -39 96 0 163 69 154 159 -11 105 -128 172 -217
123z"/>
<path d="M6169 10222 c-75 -67 -12 -186 88 -167 73 13 99 111 44 166 -40 39
-89 40 -132 1z"/>
<path d="M8335 10026 c-77 -33 -111 -117 -79 -194 28 -68 73 -95 148 -90 54 4
62 8 97 46 35 37 39 46 39 95 0 115 -104 187 -205 143z"/>
<path d="M9226 9879 c-17 -19 -26 -43 -26 -64 0 -21 9 -45 26 -64 21 -26 33
-31 68 -31 52 0 81 20 96 66 23 68 -21 124 -96 124 -35 0 -47 -5 -68 -31z"/>
<path d="M6015 9866 c-44 -19 -82 -69 -90 -115 -9 -54 22 -123 67 -151 42 -25
119 -27 160 -2 90 53 94 189 7 255 -34 25 -105 31 -144 13z"/>
<path d="M4170 9849 c-37 -15 -60 -49 -60 -92 0 -77 89 -124 155 -81 61 40 49
141 -19 169 -40 17 -42 17 -76 4z"/>
<path d="M8963 9714 c-47 -23 -75 -74 -75 -136 0 -85 59 -143 147 -143 121 0
190 125 127 227 -39 63 -129 86 -199 52z"/>
<path d="M5631 9696 c-87 -48 -50 -186 49 -186 51 0 100 49 100 99 0 75 -83
124 -149 87z"/>
<path d="M6410 9351 c-108 -35 -190 -144 -190 -251 0 -86 65 -191 144 -233 56
-29 173 -31 231 -2 54 27 110 87 131 141 20 54 16 163 -10 211 -23 45 -75 96
-122 118 -42 20 -144 29 -184 16z"/>
<path d="M2942 8989 c-55 -10 -103 -40 -145 -90 -80 -92 -77 -240 5 -334 53
-60 111 -86 192 -86 151 0 259 107 259 256 0 166 -146 286 -311 254z"/>
<path d="M6973 8968 c-30 -14 -56 -73 -48 -106 16 -65 86 -98 143 -68 38 20
52 44 52 91 0 72 -78 116 -147 83z"/>
<path d="M8952 8913 c-138 -68 -87 -283 67 -283 157 0 211 212 71 282 -43 22
-95 23 -138 1z"/>
<path d="M3497 8909 c-9 -5 -24 -24 -33 -41 -34 -66 13 -143 88 -143 53 0 98
47 98 101 0 51 -45 94 -97 94 -21 0 -46 -5 -56 -11z"/>
<path d="M8472 8910 c-93 -21 -139 -134 -91 -220 27 -48 72 -74 129 -74 84 0
141 54 148 138 3 41 -1 57 -20 85 -43 63 -98 86 -166 71z"/>
<path d="M3512 8563 c-73 -36 -105 -143 -63 -211 85 -135 292 -69 278 89 -9
108 -118 170 -215 122z"/>
<path d="M6852 8564 c-138 -70 -87 -284 67 -284 112 0 181 108 137 214 -29 70
-133 106 -204 70z"/>
<path d="M6457 8482 c-52 -54 -24 -151 47 -164 74 -14 139 57 116 126 -23 69
-113 90 -163 38z"/>
<path d="M8903 8362 c-89 -69 -15 -207 91 -172 104 34 78 190 -31 190 -21 0
-48 -8 -60 -18z"/>
<path d="M4784 8231 c-65 -28 -84 -113 -35 -162 60 -60 156 -27 168 57 4 35 1
46 -23 73 -31 33 -76 46 -110 32z"/>
<path d="M6719 8131 c-39 -40 -40 -89 -1 -132 76 -85 210 8 158 109 -32 61
-108 72 -157 23z"/>
<path d="M4509 8096 c-48 -15 -75 -72 -59 -121 15 -45 44 -65 96 -65 82 0 123
94 69 158 -29 35 -60 43 -106 28z"/>
<path d="M4323 7852 c-89 -69 -15 -207 91 -172 104 34 78 190 -31 190 -21 0
-48 -8 -60 -18z"/>
<path d="M5570 7832 c-52 -26 -80 -74 -80 -138 0 -45 5 -59 30 -87 39 -44 79
-61 134 -55 59 7 101 39 121 93 21 55 14 103 -22 145 -50 60 -117 76 -183 42z"/>
<path d="M4686 7800 c-41 -13 -85 -58 -98 -101 -33 -111 70 -220 180 -189 73
21 112 70 112 144 0 57 -28 109 -69 130 -38 20 -91 27 -125 16z"/>
<path d="M5525 7441 c-37 -16 -58 -49 -58 -93 0 -34 6 -47 32 -70 43 -39 92
-38 132 1 48 49 38 125 -21 156 -32 16 -55 18 -85 6z"/>
<path d="M3765 7344 c-101 -36 -165 -131 -165 -243 0 -78 22 -132 72 -183 127
-126 342 -90 419 69 28 57 31 158 7 214 -55 126 -202 190 -333 143z"/>
<path d="M4592 6980 c-45 -28 -76 -97 -67 -151 24 -140 216 -173 280 -49 21
41 19 119 -4 154 -44 67 -140 88 -209 46z"/>
<path d="M4220 6748 c-53 -37 -74 -72 -74 -126 0 -97 70 -159 166 -150 88 9
148 95 128 184 -22 96 -141 145 -220 92z"/>
<path d="M4571 6398 c-54 -37 -75 -72 -75 -126 0 -95 70 -159 164 -150 83 8
134 66 133 151 -1 79 -57 137 -140 144 -39 4 -55 0 -82 -19z"/>
<path d="M6559 6221 c-51 -51 -31 -139 36 -161 60 -20 119 15 131 76 17 93
-99 153 -167 85z"/>
<path d="M2783 6060 c-43 -26 -67 -74 -66 -134 1 -84 61 -141 148 -141 87 0
149 59 149 142 -1 95 -58 153 -149 153 -32 0 -62 -7 -82 -20z"/>
<path d="M6814 6011 c-51 -23 -104 -75 -130 -127 -28 -56 -26 -174 3 -230 26
-48 82 -100 132 -122 46 -20 156 -20 202 0 165 71 211 291 88 418 -23 23 -59
50 -82 61 -56 25 -158 25 -213 0z"/>
<path d="M714 5991 c-59 -36 -76 -69 -72 -138 4 -68 25 -100 82 -130 38 -19
114 -13 149 13 31 22 67 90 67 126 0 41 -42 109 -80 129 -44 24 -107 24 -146
0z"/>
<path d="M191 5869 c-80 -23 -136 -80 -171 -171 -25 -66 -25 -74 1 -144 43
-114 125 -174 239 -174 76 0 130 21 178 70 47 47 64 86 70 162 4 59 1 75 -22
122 -55 113 -177 168 -295 135z"/>
<path d="M6384 5701 c-72 -44 -98 -112 -69 -187 25 -67 77 -98 151 -92 51 4
61 9 96 46 34 37 38 46 38 95 0 119 -121 196 -216 138z"/>
<path d="M2483 5691 c-163 -42 -246 -230 -168 -381 21 -41 98 -105 143 -118
179 -54 342 65 342 248 0 76 -22 130 -71 179 -60 61 -168 92 -246 72z"/>
<path d="M3023 5632 c-86 -66 -11 -206 92 -172 103 34 79 190 -29 190 -23 0
-51 -8 -63 -18z"/>
<path d="M352 5230 c-100 -61 -96 -207 8 -261 96 -52 208 10 217 120 11 121
-121 204 -225 141z"/>
<path d="M1064 4720 c-44 -14 -91 -70 -99 -119 -9 -55 26 -127 74 -155 99 -57
224 15 224 128 0 105 -98 176 -199 146z"/>
<path d="M5460 4453 c-8 -3 -26 -15 -38 -27 -80 -72 -66 -195 28 -243 56 -29
86 -29 140 0 95 50 108 170 26 246 -20 19 -39 25 -84 28 -31 1 -64 0 -72 -4z"/>
<path d="M823 4285 c-68 -34 -105 -88 -111 -161 -14 -172 152 -283 306 -205
114 58 143 214 59 316 -62 76 -162 95 -254 50z"/>
<path d="M5533 4095 c-57 -40 -46 -142 19 -169 100 -42 182 70 112 153 -21 26
-33 31 -68 31 -23 0 -51 -7 -63 -15z"/>
<path d="M1376 4050 c-91 -28 -135 -145 -83 -220 52 -77 135 -97 209 -52 90
56 89 201 -2 255 -34 20 -89 28 -124 17z"/>
<path d="M5186 3969 c-37 -43 -36 -96 3 -133 52 -50 130 -34 157 31 12 27 13
42 4 69 -15 44 -45 64 -96 64 -35 0 -47 -5 -68 -31z"/>
<path d="M5596 3464 c-20 -20 -26 -37 -26 -68 0 -53 21 -83 67 -95 77 -22 144
46 122 124 -20 67 -112 89 -163 39z"/>
<path d="M1744 1661 c-60 -26 -73 -113 -25 -162 40 -39 89 -40 132 -1 63 56
32 156 -52 167 -18 3 -44 1 -55 -4z"/>
</g>
</svg>
