<?xml version="1.0" standalone="no"?>
<!DOCTYPE svg PUBLIC "-//W3C//DTD SVG 20010904//EN"
 "http://www.w3.org/TR/2001/REC-SVG-20010904/DTD/svg10.dtd">
<svg version="1.0" xmlns="http://www.w3.org/2000/svg"
 width="1177.000000pt" height="1280.000000pt" viewBox="0 0 1177.000000 1280.000000"
 preserveAspectRatio="xMidYMid meet">
<g transform="translate(0.000000,1280.000000) scale(0.100000,-0.100000)"
fill="#000000" stroke="none">
<path d="M4685 12557 c-22 -18 -28 -35 -37 -102 -14 -109 -4 -530 16 -684 56
-423 196 -841 420 -1251 41 -74 79 -152 84 -173 20 -74 -16 -117 -97 -117 -33
0 -45 7 -82 48 -144 155 -352 539 -448 827 -153 460 -217 866 -193 1225 14
204 26 191 -177 188 -155 -3 -156 -3 -167 -28 -33 -70 -42 -572 -14 -815 40
-353 130 -683 272 -1005 81 -183 120 -281 114 -287 -3 -3 -53 1 -113 8 -166
21 -703 18 -863 -4 -69 -10 -222 -27 -340 -38 -227 -20 -258 -25 -465 -65
-349 -69 -743 -217 -1050 -395 -228 -131 -396 -255 -552 -403 -149 -143 -152
-145 -184 -136 -208 60 -386 435 -365 772 18 283 109 517 299 767 108 141 108
145 0 35 -233 -239 -373 -533 -399 -840 -17 -202 59 -454 190 -631 51 -70 105
-114 184 -149 28 -13 52 -27 52 -31 0 -5 -37 -53 -81 -108 -164 -203 -323
-464 -418 -687 -135 -315 -201 -572 -251 -983 -26 -203 -27 -186 46 -630 48
-288 70 -386 110 -483 142 -345 350 -632 633 -875 129 -111 224 -174 366 -242
209 -100 396 -159 601 -190 127 -19 393 -21 504 -5 280 42 550 159 685 294
134 134 259 321 302 450 25 75 27 93 27 251 0 145 -3 182 -22 250 -35 127
-112 273 -180 345 -61 63 -84 72 -105 39 -8 -14 -2 -27 31 -67 49 -58 105
-172 126 -256 40 -154 45 -361 12 -469 -35 -112 -131 -253 -261 -382 -67 -67
-99 -90 -185 -133 -186 -93 -441 -152 -654 -152 -643 0 -1217 364 -1545 981
-139 262 -203 510 -232 902 -23 315 43 707 175 1034 131 325 334 639 573 886
148 152 318 294 344 285 6 -2 -24 -51 -67 -108 -358 -481 -540 -940 -609
-1535 -26 -227 -21 -302 50 -708 52 -295 68 -355 141 -506 73 -153 131 -251
209 -357 57 -76 185 -217 192 -211 2 3 -44 76 -103 163 -204 305 -322 598
-368 914 -52 358 -34 704 54 1045 165 637 595 1239 1158 1619 170 115 261 155
442 196 l84 19 38 -40 c48 -50 130 -219 158 -324 31 -114 38 -347 15 -470 -44
-238 -144 -450 -312 -658 -35 -43 -62 -81 -60 -83 7 -7 166 165 222 241 109
146 180 294 231 478 31 113 44 330 25 429 -24 124 -93 295 -160 393 -40 58
-40 58 149 81 193 22 542 20 742 -6 423 -54 802 -173 1193 -374 213 -109 312
-172 660 -421 162 -115 372 -257 467 -314 399 -241 627 -404 852 -608 410
-370 763 -893 930 -1373 77 -221 186 -677 186 -778 0 -35 -8 -46 -87 -123
-324 -314 -753 -521 -1013 -488 -157 19 -303 57 -472 123 -38 14 -68 24 -68
22 0 -19 312 -157 390 -172 92 -19 -48 -45 -243 -45 -420 -2 -808 169 -1106
487 -194 207 -335 492 -370 749 -16 112 -14 319 5 415 60 318 264 599 527 724
237 114 514 128 687 35 79 -42 179 -134 212 -195 58 -107 63 -280 12 -393 -28
-65 -25 -86 12 -79 25 4 79 107 94 180 18 81 8 238 -18 306 -58 151 -264 315
-440 351 -74 15 -256 14 -344 -3 -413 -79 -724 -366 -869 -801 l-33 -100 -4
-251 c-3 -244 -3 -255 23 -360 70 -293 219 -564 430 -782 330 -343 792 -532
1300 -532 322 0 602 66 970 230 199 88 387 153 397 137 45 -71 -118 -742 -203
-833 -10 -11 -19 -31 -19 -45 0 -47 -99 -232 -231 -429 -208 -313 -477 -577
-779 -765 -238 -148 -410 -215 -660 -260 -328 -57 -520 -125 -789 -279 -154
-88 -181 -108 -341 -263 -65 -62 -122 -113 -126 -112 -5 0 -27 24 -50 52 -53
69 -127 119 -232 158 -81 30 -98 33 -237 37 -237 6 -391 -35 -581 -154 -223
-140 -395 -329 -513 -566 -28 -56 -46 -95 -39 -84 207 304 360 456 576 568
178 94 322 128 531 128 150 0 242 -18 330 -62 65 -33 145 -103 156 -138 4 -13
-11 -44 -50 -101 -144 -215 -246 -482 -280 -730 -11 -87 -6 -323 9 -417 44
-267 161 -526 333 -738 63 -79 307 -270 398 -313 131 -63 373 -121 501 -121
148 0 402 86 550 187 149 102 280 287 313 441 23 109 6 264 -39 352 -28 56
-100 131 -160 170 -61 39 -159 72 -202 68 -28 -2 -33 -7 -33 -28 0 -21 6 -25
42 -32 22 -3 59 -16 81 -27 65 -33 158 -126 189 -189 26 -53 28 -66 28 -177
l0 -120 -42 -85 c-90 -184 -276 -328 -513 -396 -84 -24 -102 -26 -233 -21
-149 5 -200 15 -335 67 -226 87 -470 330 -586 581 -84 183 -120 356 -120 579
1 231 38 388 145 606 84 170 283 412 430 522 95 71 345 192 398 192 25 0 -36
-54 -104 -92 l-60 -34 -31 -89 c-17 -50 -41 -110 -53 -133 -12 -24 -21 -46
-19 -48 2 -2 60 60 128 138 162 183 266 278 348 321 77 40 174 72 582 192 334
98 427 131 602 213 68 33 175 76 238 97 428 141 770 414 1072 855 86 125 161
257 263 460 53 105 95 176 114 192 46 39 138 53 346 53 148 -1 197 -5 278 -23
113 -25 217 -56 255 -76 15 -7 58 -27 95 -45 267 -124 509 -395 617 -690 56
-153 65 -210 64 -401 -1 -155 -4 -186 -26 -271 -70 -260 -236 -464 -469 -573
-110 -53 -187 -70 -314 -70 -126 -1 -191 12 -291 60 -85 40 -157 113 -203 205
-25 51 -31 74 -31 130 0 84 29 179 70 231 57 71 16 108 -47 41 -79 -83 -124
-238 -103 -356 13 -72 60 -162 122 -231 154 -176 468 -238 758 -150 236 72
407 214 552 459 45 74 68 146 109 328 28 130 31 152 26 262 -14 288 -96 540
-250 765 -60 87 -227 259 -309 318 -31 23 -91 62 -132 88 -42 25 -76 49 -76
53 0 18 42 44 100 62 125 39 305 18 500 -58 268 -104 513 -343 646 -629 20
-43 56 -137 81 -209 39 -118 43 -125 38 -73 -9 83 -58 263 -100 365 -136 327
-404 595 -691 691 -82 28 -292 53 -412 50 -56 -2 -94 -5 -85 -9 11 -4 6 -12
-23 -33 -22 -16 -61 -50 -87 -75 l-48 -46 -57 22 c-31 12 -100 38 -152 57 -52
20 -102 39 -110 43 -28 12 114 32 275 40 133 6 152 8 115 16 -79 15 -356 11
-464 -7 -109 -18 -387 -33 -429 -22 -24 6 -27 11 -27 53 0 26 13 112 30 192
16 80 36 198 45 261 23 163 31 525 16 701 -44 514 -196 993 -469 1468 -48 85
-66 127 -70 163 -8 84 25 112 203 176 535 192 992 542 1287 986 72 109 198
348 198 375 0 6 6 11 14 11 37 0 133 -162 179 -301 68 -205 76 -480 19 -699
-16 -63 -46 -158 -65 -210 -20 -52 -34 -96 -32 -98 8 -9 115 229 144 320 43
137 61 260 61 423 0 243 -48 405 -176 597 -42 62 -76 119 -76 128 -2 34 46
179 79 240 34 61 35 67 24 108 -6 23 -11 118 -11 212 0 255 -34 471 -106 670
-30 86 -83 194 -90 187 -3 -2 13 -74 35 -158 66 -255 75 -327 76 -569 0 -184
-3 -231 -23 -330 -21 -107 -68 -280 -76 -280 -2 0 -47 21 -100 46 -71 34 -114
47 -159 51 -34 3 -67 9 -73 14 -6 5 -8 29 -3 66 13 102 10 368 -6 485 -57 429
-243 813 -552 1138 -110 116 -161 154 -363 275 -193 115 -245 138 -396 181
-113 31 -147 37 -274 41 -238 8 -435 -24 -613 -103 -352 -154 -607 -434 -693
-761 -39 -149 -15 -351 58 -502 83 -172 314 -311 515 -311 41 0 64 5 73 15 22
27 4 42 -57 47 -173 16 -382 158 -433 295 -78 207 -71 383 22 568 137 272 430
500 718 559 198 40 404 40 574 1 346 -81 685 -327 900 -654 258 -391 357 -909
260 -1356 -61 -285 -166 -512 -370 -800 -88 -125 -285 -328 -409 -422 -186
-140 -442 -286 -526 -299 -35 -6 -37 -4 -139 112 -310 353 -651 632 -1075 879
-162 94 -347 219 -389 263 -22 22 -60 80 -85 129 l-46 88 -62 -3 c-43 -3 -72
1 -100 14 -21 10 -109 88 -197 173 l-158 156 5 65 c14 161 121 369 326 632 18
24 -13 -4 -70 -62 -120 -121 -203 -238 -282 -397 -31 -61 -61 -114 -66 -117
-15 -10 -220 272 -321 439 -173 291 -282 552 -370 890 -84 321 -110 510 -114
813 -2 211 -3 215 -25 233 -34 28 -112 26 -146 -4z m5032 -2892 c75 -37 133
-92 133 -126 0 -49 -183 -360 -308 -523 -69 -90 -235 -258 -337 -341 -102 -83
-266 -197 -273 -190 -3 2 38 58 91 123 185 227 318 451 410 687 36 93 91 279
103 350 4 22 11 46 17 53 16 21 80 7 164 -33z m-4113 -31 c7 -19 2 -18 -19 6
-16 17 -16 20 -3 15 9 -4 19 -13 22 -21z m442 -287 c281 -201 369 -259 554
-372 213 -128 468 -300 605 -407 131 -102 448 -405 442 -422 -4 -14 -39 -30
-104 -50 l-53 -15 -97 117 c-291 350 -702 712 -1018 897 -55 32 -138 81 -185
108 -119 70 -364 231 -389 256 -12 12 -21 32 -21 46 0 34 -9 39 266 -158z
m1947 -1629 c272 -411 421 -779 527 -1303 49 -246 42 -291 -64 -403 -86 -91
-144 -138 -156 -126 -5 5 -16 86 -25 179 -27 294 -56 470 -114 680 -82 300
-230 645 -400 930 -40 67 -57 103 -50 110 16 16 119 43 166 44 l41 1 75 -112z
m536 -1946 c19 -18 30 -43 35 -72 12 -86 -42 -442 -95 -613 -19 -63 -24 -70
-61 -87 -69 -31 -236 -85 -243 -78 -3 3 3 41 14 84 35 137 60 283 86 489 l24
200 37 32 c46 41 111 73 147 73 18 0 39 -10 56 -28z m-224 -1119 c-56 -133
-192 -357 -322 -532 -124 -164 -407 -450 -503 -506 -19 -11 2 23 75 120 147
197 316 483 419 710 47 103 61 124 97 149 56 39 187 96 222 96 l27 0 -15 -37z"/>
</g>
</svg>
